<?xml version="1.0" encoding="UTF-8" standalone="no"?>
<!-- Created with Inkscape (http://www.inkscape.org/) -->

<svg
   xmlns:dc="http://purl.org/dc/elements/1.1/"
   xmlns:cc="http://creativecommons.org/ns#"
   xmlns:rdf="http://www.w3.org/1999/02/22-rdf-syntax-ns#"
   xmlns:svg="http://www.w3.org/2000/svg"
   xmlns="http://www.w3.org/2000/svg"
   xmlns:xlink="http://www.w3.org/1999/xlink"
   xmlns:sodipodi="http://sodipodi.sourceforge.net/DTD/sodipodi-0.dtd"
   xmlns:inkscape="http://www.inkscape.org/namespaces/inkscape"
   width="1280"
   height="800"
   id="svg1"
   sodipodi:version="0.32"
   inkscape:version="0.48.4 r9939"
   sodipodi:docname="71676-lineart_1610_TDE.svg"
   inkscape:export-filename="/home/famille/pics/71676-lineart_1610_TDE.png"
   inkscape:export-xdpi="225"
   inkscape:export-ydpi="225"
   inkscape:output_extension="org.inkscape.output.svgz.inkscape"
   version="1.0">
  <defs
     id="defs3">
    <linearGradient
       id="linearGradient1823">
      <stop
         style="stop-color:#ffffff;stop-opacity:0.0000000;"
         offset="0.0000000"
         id="stop1824" />
      <stop
         style="stop-color:#ffffff;stop-opacity:0.35211268;"
         offset="0.50000000"
         id="stop1825" />
      <stop
         style="stop-color:#ffffff;stop-opacity:0.0000000;"
         offset="1.0000000"
         id="stop1826" />
    </linearGradient>
    <linearGradient
       id="linearGradient1817">
      <stop
         style="stop-color:#ffffff;stop-opacity:0.0000000;"
         offset="0.0000000"
         id="stop1818" />
      <stop
         style="stop-color:#ffffff;stop-opacity:0.039215688;"
         offset="0.50000000"
         id="stop1821" />
      <stop
         style="stop-color:#ffffff;stop-opacity:0.0000000;"
         offset="1.0000000"
         id="stop1822" />
    </linearGradient>
    <linearGradient
       id="linearGradient1818">
      <stop
         style="stop-color:#ffffff;stop-opacity:1.0000000;"
         offset="0.0000000"
         id="stop1819" />
      <stop
         style="stop-color:#ffffff;stop-opacity:0.0000000;"
         offset="1.0000000"
         id="stop1820" />
    </linearGradient>
    <linearGradient
       id="linearGradient1813">
      <stop
         style="stop-color:#ffffff;stop-opacity:0.0000000;"
         offset="0.0000000"
         id="stop1815" />
      <stop
         style="stop-color:#ffffff;stop-opacity:0.49803922;"
         offset="0.50000000"
         id="stop1816" />
      <stop
         style="stop-color:#ffffff;stop-opacity:0;"
         offset="1"
         id="stop1817" />
    </linearGradient>
    <linearGradient
       id="linearGradient1807">
      <stop
         style="stop-color:#ffffff;stop-opacity:0.68544602;"
         offset="0.0000000"
         id="stop1808" />
      <stop
         style="stop-color:#fefeff;stop-opacity:0.0000000;"
         offset="1.0000000"
         id="stop1809" />
    </linearGradient>
    <linearGradient
       id="linearGradient13017">
      <stop
         style="stop-color:#000000;stop-opacity:1.0000000;"
         offset="0.0000000"
         id="stop13018" />
      <stop
         style="stop-color:#ffffff;stop-opacity:1.0000000;"
         offset="1.0000000"
         id="stop13019" />
    </linearGradient>
    <linearGradient
       id="linearGradient1812">
      <stop
         style="stop-color:#ffffff;stop-opacity:0.058823530;"
         offset="0.0000000"
         id="stop1813" />
      <stop
         style="stop-color:#ffffff;stop-opacity:0.0000000;"
         offset="1.0000000"
         id="stop1814" />
    </linearGradient>
    <linearGradient
       id="linearGradient4276">
      <stop
         style="stop-color:#ffffff;stop-opacity:0.11764706;"
         offset="0.0000000"
         id="stop4277" />
      <stop
         style="stop-color:#fefeff;stop-opacity:0.0000000;"
         offset="1.0000000"
         id="stop4278" />
    </linearGradient>
    <linearGradient
       id="linearGradient3030">
      <stop
         style="stop-color:#0e3581;stop-opacity:0.0000000;"
         offset="0.0000000"
         id="stop3031" />
      <stop
         style="stop-color:#1443a0;stop-opacity:1.0000000;"
         offset="0.50000000"
         id="stop3032" />
      <stop
         style="stop-color:#0440b6;stop-opacity:0.0000000;"
         offset="1.0000000"
         id="stop3033" />
    </linearGradient>
    <linearGradient
       id="linearGradient2402">
      <stop
         style="stop-color:#01306f;stop-opacity:1.0000000;"
         offset="0.0000000"
         id="stop2403" />
      <stop
         style="stop-color:#03439b;stop-opacity:1.0000000;"
         offset="0.50000000"
         id="stop2404" />
      <stop
         style="stop-color:#003680;stop-opacity:1.0000000;"
         offset="1.0000000"
         id="stop2405" />
    </linearGradient>
    <linearGradient
       inkscape:collect="always"
       id="linearGradient9839">
      <stop
         style="stop-color:#000000;stop-opacity:1;"
         offset="0"
         id="stop9840" />
      <stop
         style="stop-color:#000000;stop-opacity:0;"
         offset="1"
         id="stop9841" />
    </linearGradient>
    <linearGradient
       id="linearGradient4069">
      <stop
         style="stop-color:#ffbe34;stop-opacity:0.68544602;"
         offset="0.0000000"
         id="stop4070" />
      <stop
         style="stop-color:#ffdc4c;stop-opacity:0.0000000;"
         offset="1.0000000"
         id="stop4071" />
    </linearGradient>
    <linearGradient
       id="linearGradient16912">
      <stop
         style="stop-color:#ffffff;stop-opacity:0.66666669;"
         offset="0.0000000"
         id="stop16913" />
      <stop
         style="stop-color:#ffffff;stop-opacity:0;"
         offset="1"
         id="stop16914" />
    </linearGradient>
    <linearGradient
       id="linearGradient8708">
      <stop
         style="stop-color:#01306f;stop-opacity:1.0000000;"
         offset="0.0000000"
         id="stop8709" />
      <stop
         style="stop-color:#03439b;stop-opacity:1.0000000;"
         offset="0.50000000"
         id="stop12476" />
      <stop
         style="stop-color:#003680;stop-opacity:1.0000000;"
         offset="1.0000000"
         id="stop8710" />
    </linearGradient>
    <linearGradient
       id="linearGradient3704">
      <stop
         style="stop-color:#0b1d41;stop-opacity:1.0000000;"
         offset="0.0000000"
         id="stop3705" />
      <stop
         style="stop-color:#000000;stop-opacity:1.0000000;"
         offset="1.0000000"
         id="stop3706" />
    </linearGradient>
    <linearGradient
       id="linearGradient1810">
      <stop
         style="stop-color:#ffffff;stop-opacity:0.39215687;"
         offset="0.0000000"
         id="stop1811" />
      <stop
         style="stop-color:#fefeff;stop-opacity:0.054901961;"
         offset="1.0000000"
         id="stop1812" />
    </linearGradient>
    <linearGradient
       id="linearGradient12401">
      <stop
         style="stop-color:#ffffff;stop-opacity:0.0000000;"
         offset="0.0000000"
         id="stop12402" />
      <stop
         style="stop-color:#ffffff;stop-opacity:0.039215688;"
         offset="0.50000000"
         id="stop9333" />
      <stop
         style="stop-color:#ffffff;stop-opacity:0.0000000;"
         offset="1.0000000"
         id="stop12403" />
    </linearGradient>
    <linearGradient
       id="linearGradient11763">
      <stop
         style="stop-color:#000000;stop-opacity:1.0000000;"
         offset="0.0000000"
         id="stop11764" />
      <stop
         style="stop-color:#000000;stop-opacity:0.63380283;"
         offset="1.0000000"
         id="stop11765" />
    </linearGradient>
    <linearGradient
       id="linearGradient9855">
      <stop
         style="stop-color:#0058ff;stop-opacity:1.0000000;"
         offset="0.0000000"
         id="stop9856" />
      <stop
         style="stop-color:#fdfdfd;stop-opacity:0;"
         offset="1"
         id="stop9857" />
    </linearGradient>
    <linearGradient
       id="linearGradient9230">
      <stop
         style="stop-color:#0058ff;stop-opacity:1.0000000;"
         offset="0.0000000"
         id="stop9231" />
      <stop
         style="stop-color:#fdfdfd;stop-opacity:0;"
         offset="1"
         id="stop9232" />
    </linearGradient>
    <linearGradient
       id="linearGradient7972">
      <stop
         style="stop-color:#fdfdfd;stop-opacity:0.29411766;"
         offset="0.0000000"
         id="stop7973" />
      <stop
         style="stop-color:#fdfdfd;stop-opacity:0.35294119;"
         offset="0.50000000"
         id="stop8597" />
      <stop
         style="stop-color:#fdfdfd;stop-opacity:0.098039217;"
         offset="1.0000000"
         id="stop7974" />
    </linearGradient>
    <linearGradient
       id="linearGradient2353">
      <stop
         style="stop-color:#b3cfff;stop-opacity:1.0000000;"
         offset="0.0000000"
         id="stop2354" />
      <stop
         style="stop-color:#0050dd;stop-opacity:1.0000000;"
         offset="1.0000000"
         id="stop2355" />
    </linearGradient>
    <style
       type="text/css"
       id="style2415">
   
    .fil0 {fill:#0093DD}
    .fil2 {fill:#FFFFFF}
    .fil1 {fill:#1F1A17}
   
  </style>
    <style
       type="text/css"
       id="style2017">
   
    .fil0 {fill:#0093DD}
    .fil2 {fill:#FFFFFF}
    .fil1 {fill:#1F1A17}
   
  </style>
    <linearGradient
       inkscape:collect="always"
       xlink:href="#linearGradient7972"
       id="linearGradient11136"
       gradientUnits="userSpaceOnUse"
       gradientTransform="scale(1.263675,0.791343)"
       x1="585.87195"
       y1="411.427"
       x2="607.1839"
       y2="640.82019" />
    <linearGradient
       inkscape:collect="always"
       xlink:href="#linearGradient11763"
       id="linearGradient11762"
       gradientTransform="matrix(1.091599,0,0,0.806927,0,81.69132)"
       x1="624.75842"
       y1="1078.1119"
       x2="593.87524"
       y2="751.44543"
       gradientUnits="userSpaceOnUse" />
    <linearGradient
       inkscape:collect="always"
       xlink:href="#linearGradient1823"
       id="linearGradient12404"
       gradientTransform="matrix(17.947109,0,0,2.8870544e-2,479.17154,61.945729)"
       x1="44.144588"
       y1="19776.625"
       x2="3.1722441"
       y2="19776.625"
       gradientUnits="userSpaceOnUse" />
    <radialGradient
       inkscape:collect="always"
       xlink:href="#linearGradient1810"
       id="radialGradient9346"
       gradientUnits="userSpaceOnUse"
       gradientTransform="matrix(0.404153,0,0,0.406072,598.1281,554.3846)"
       cx="905.61401"
       cy="375.39572"
       fx="905.61401"
       fy="375.39572"
       r="201.9917" />
    <linearGradient
       inkscape:collect="always"
       xlink:href="#linearGradient16912"
       id="linearGradient16915"
       gradientTransform="scale(3.401788,0.293963)"
       x1="68.284729"
       y1="507.98886"
       x2="123.76366"
       y2="612.88391"
       gradientUnits="userSpaceOnUse" />
    <linearGradient
       inkscape:collect="always"
       xlink:href="#linearGradient9839"
       id="linearGradient9842"
       gradientTransform="scale(1.111535,0.899657)"
       x1="102.81779"
       y1="150.29443"
       x2="424.56198"
       y2="722.41736"
       gradientUnits="userSpaceOnUse" />
    <linearGradient
       inkscape:collect="always"
       xlink:href="#linearGradient1810"
       id="linearGradient1357"
       gradientUnits="userSpaceOnUse"
       gradientTransform="matrix(1.5867519,0,0,0.5253307,3.7201511,8.7347901)"
       x1="318.57779"
       y1="-62.640854"
       x2="350.99991"
       y2="820.59406"
       spreadMethod="pad" />
    <pattern
       patternUnits="userSpaceOnUse"
       width="176.62337"
       height="177.46243"
       patternTransform="translate(876.9406,614.1349)"
       id="pattern1981">
      <rect
         style="opacity:0.45248869;fill:url(#radialGradient9346);fill-opacity:1.0000000;fill-rule:nonzero;stroke:none;stroke-width:1.2500000;stroke-linecap:round;stroke-linejoin:round;stroke-miterlimit:4.0000000;stroke-dashoffset:0.0000000;stroke-opacity:1.0000000"
         id="rect1982"
         width="176.62337"
         height="177.46243"
         x="876.94055"
         y="614.13489"
         rx="49.708714"
         ry="49.705379"
         transform="translate(-876.9406,-614.1349)" />
    </pattern>
    <linearGradient
       inkscape:collect="always"
       xlink:href="#linearGradient3030"
       id="linearGradient1158"
       gradientUnits="userSpaceOnUse"
       gradientTransform="matrix(1.1547996,0,0,0.7218301,-5.5212096e-2,-7.4389613e-2)"
       x1="548.97797"
       y1="762.54321"
       x2="1061.0055"
       y2="924.93665" />
    <linearGradient
       inkscape:collect="always"
       xlink:href="#linearGradient1812"
       id="linearGradient1811"
       gradientTransform="matrix(1.0653239,0,0,0.7824561,-5.520822e-2,-7.4389613e-2)"
       x1="1339.2728"
       y1="626.07275"
       x2="618.57043"
       y2="422.78098"
       gradientUnits="userSpaceOnUse" />
    <linearGradient
       inkscape:collect="always"
       xlink:href="#linearGradient4276"
       id="linearGradient3061"
       gradientTransform="matrix(0.5417717,0,0,1.538598,-5.5212096e-2,-7.4389613e-2)"
       x1="1384.5165"
       y1="128.08214"
       x2="2398.271"
       y2="264.82779"
       gradientUnits="userSpaceOnUse" />
    <linearGradient
       inkscape:collect="always"
       xlink:href="#linearGradient12401"
       id="linearGradient11144"
       gradientUnits="userSpaceOnUse"
       gradientTransform="matrix(0.7628518,0,0,1.0927004,212.56163,-7.4389613e-2)"
       x1="929.92407"
       y1="365.15329"
       x2="1407.9355"
       y2="550.30981" />
    <linearGradient
       inkscape:collect="always"
       xlink:href="#linearGradient12401"
       id="linearGradient11147"
       gradientUnits="userSpaceOnUse"
       gradientTransform="matrix(-0.7628518,0,0,-1.0927004,1832.2648,801.60128)"
       x1="929.92407"
       y1="365.15329"
       x2="1407.9355"
       y2="550.30981" />
    <linearGradient
       inkscape:collect="always"
       xlink:href="#linearGradient13017"
       id="linearGradient13020"
       gradientTransform="scale(1.002493,0.997513)"
       x1="995.72772"
       y1="740.08929"
       x2="927.9621"
       y2="671.04675"
       gradientUnits="userSpaceOnUse" />
    <linearGradient
       inkscape:collect="always"
       xlink:href="#linearGradient7972"
       id="linearGradient13885"
       gradientUnits="userSpaceOnUse"
       gradientTransform="scale(1.263675,0.791343)"
       x1="585.87195"
       y1="411.427"
       x2="607.1839"
       y2="640.82019" />
    <linearGradient
       id="linearGradient10239"
       y2="943.17999"
       gradientUnits="userSpaceOnUse"
       y1="782.28998"
       gradientTransform="matrix(-1.4212,0,0,0.69594,257.68573,-578.294)"
       x2="110.43"
       x1="150.39">
      <stop
         id="stop2247-9"
         style="stop-color:#fff"
         offset="0" />
      <stop
         id="stop2248-4"
         style="stop-color:#fff;stop-opacity:0"
         offset="1" />
    </linearGradient>
    <linearGradient
       inkscape:collect="always"
       xlink:href="#linearGradient10239"
       id="linearGradient3240"
       gradientUnits="userSpaceOnUse"
       gradientTransform="matrix(-0.56630077,0,0,0.27730887,1293.1289,-201.34942)"
       x1="150.39"
       y1="782.28998"
       x2="110.43"
       y2="943.17999" />
  </defs>
  <sodipodi:namedview
     id="base"
     pagecolor="#ffffff"
     bordercolor="#666666"
     borderopacity="1.0"
     inkscape:pageopacity="0.0"
     inkscape:pageshadow="2"
     inkscape:zoom="0.79462554"
     inkscape:cx="703.47465"
     inkscape:cy="433.20165"
     inkscape:current-layer="svg1"
     gridtolerance="2.0000000px"
     showgrid="false"
     guidetolerance="2.0000000px"
     inkscape:window-width="1600"
     inkscape:window-height="839"
     inkscape:window-x="-2"
     inkscape:window-y="-3"
     inkscape:grid-bbox="false"
     height="800px"
     width="1280px"
     inkscape:window-maximized="1">
    <inkscape:grid
       id="GridFromPre046Settings"
       type="xygrid"
       originx="0.0000000pt"
       originy="0.0000000pt"
       spacingx="2.0000000pt"
       spacingy="2.0000000pt"
       color="#3f3fff"
       empcolor="#3f3fff"
       opacity="0.15"
       empopacity="0.38"
       empspacing="2"
       units="pt"
       visible="true"
       enabled="true"
       snapvisiblegridlinesonly="true" />
  </sodipodi:namedview>
  <metadata
     id="metadata4">
    <rdf:RDF>
      <cc:Work
         rdf:about="">
        <dc:format>image/svg+xml</dc:format>
        <dc:type
           rdf:resource="http://purl.org/dc/dcmitype/StillImage" />
        <dc:title></dc:title>
        <dc:creator>
          <cc:Agent>
            <dc:title>Jan-Victor Krille</dc:title>
          </cc:Agent>
        </dc:creator>
        <dc:rights>
          <cc:Agent>
            <dc:title />
          </cc:Agent>
        </dc:rights>
        <dc:source>http://www.kde.org</dc:source>
        <dc:description>a svg wallpaper for kde 3.4</dc:description>
        <cc:license
           rdf:resource="http://creativecommons.org/licenses/GPL/2.0/" />
      </cc:Work>
      <cc:License
         rdf:about="http://creativecommons.org/licenses/GPL/2.0/">
        <cc:permits
           rdf:resource="http://web.resource.org/cc/Reproduction" />
        <cc:permits
           rdf:resource="http://web.resource.org/cc/Distribution" />
        <cc:requires
           rdf:resource="http://web.resource.org/cc/Notice" />
        <cc:permits
           rdf:resource="http://web.resource.org/cc/DerivativeWorks" />
        <cc:requires
           rdf:resource="http://web.resource.org/cc/ShareAlike" />
        <cc:requires
           rdf:resource="http://web.resource.org/cc/SourceCode" />
      </cc:License>
    </rdf:RDF>
  </metadata>
  <rect
     style="opacity:1;fill:#01306f;fill-opacity:1;fill-rule:evenodd;stroke:none;stroke-width:1.26412666;stroke-linecap:round;stroke-linejoin:round;stroke-miterlimit:4;stroke-dashoffset:0;stroke-opacity:0.53846154"
     id="rect1107"
     width="1280.1382"
     height="800.22717"
     x="-0.073321879"
     y="-0.051684864" />
  <path
     style="opacity:1;fill:url(#linearGradient11144);fill-opacity:1;fill-rule:evenodd;stroke:none;stroke-width:0.25pt;stroke-linecap:butt;stroke-linejoin:miter;stroke-opacity:1"
     d="M 1164.7328,-0.69951341 C 1264.2196,258.61376 928.11914,531.4294 910.39831,800.29111 L 1174.2649,800.29111 C 1061.8695,614.77634 1049.9813,404.74614 1280.0864,164.46313 L 1280.0864,-0.69951341 L 1164.7328,-0.69951341 z "
     id="path4304" />
  <path
     style="opacity:1;fill:url(#linearGradient11147);fill-opacity:1;fill-rule:evenodd;stroke:none;stroke-width:0.25pt;stroke-linecap:butt;stroke-linejoin:miter;stroke-opacity:1"
     d="M 829.67261,-0.49113936 C 1031.4355,464.22183 845.40864,673.83345 580.61988,800.49948 L 825.76602,800.49948 C 904.35813,516.06374 1060.7127,269.57227 1073.3186,-0.49113936 L 829.67261,-0.49113936 z "
     id="path4930" />
  <rect
     style="fill:url(#linearGradient1158);fill-opacity:1;fill-rule:evenodd;stroke:none;stroke-width:1.26412666;stroke-linecap:round;stroke-linejoin:round;stroke-miterlimit:4;stroke-dashoffset:0;stroke-opacity:0.53846154"
     id="rect1157"
     width="1280.1105"
     height="800.1571"
     x="-0.055212095"
     y="-0.07439056" />
  <path
     style="opacity:1;fill:url(#linearGradient1811);fill-opacity:1;fill-rule:evenodd;stroke:none;stroke-width:0.25pt;stroke-linecap:butt;stroke-linejoin:miter;stroke-opacity:1"
     d="M 998.67409,0.026826928 C 1178.6349,288.72368 979.67532,511.56754 763.7601,800.25926 L 227.09108,800.07824 C 651.81895,466.19802 1097.6907,427.22589 1135.4818,-0.19987259 L 998.67409,0.026826928 z "
     id="path1186"
     sodipodi:nodetypes="ccccc" />
  <path
     style="opacity:1;fill:url(#linearGradient3061);fill-opacity:1;fill-rule:evenodd;stroke:none;stroke-width:0.25pt;stroke-linecap:butt;stroke-linejoin:miter;stroke-opacity:1"
     d="M 1191.6798,-0.11972768 L 1279.5609,-0.05203189 C 1202.4208,283.55831 1121.0568,502.76116 1279.7309,799.79924 L 1062.2697,800.15043 C 884.55474,602.8032 1118.9338,215.53806 1191.6798,-0.11972768 z "
     id="path2436"
     sodipodi:nodetypes="ccccc" />
  <g
     inkscape:label="Layer 1"
     inkscape:groupmode="layer"
     id="layer1" />
  <rect
     style="opacity:1;fill:none;fill-opacity:0.35159816;fill-rule:nonzero;stroke:none;stroke-linejoin:round;stroke-opacity:1"
     width="176.63861"
     height="147.9144"
     x="876.961"
     y="511.80521"
     id="rect1983" />
  <g
     id="flowRoot4299"
     style="fill:#ffffff"
     transform="translate(32.702687,-649.49318)">
    <path
       inkscape:connector-curvature="0"
       id="path4308"
       style="fill:#ffffff"
       d="m 960.31,700.38 -0.39063,1.5625 h -2.7344 v 10.156 h -1.9531 v -10.156 h -2.7344 l -0.39063,-1.5625 h 8.2031" />
    <path
       inkscape:connector-curvature="0"
       id="path4310"
       style="fill:#ffffff"
       d="m 963.45,712.09 h -1.9531 v -7.8125 h 1.9531 v 1.1719 c 0.3125,-0.93749 0.88281,-1.4036 1.7109,-1.3984 0.82812,0.005 1.4922,0.17969 1.9922,0.52343 l -0.65,1.46 c -0.23438,-0.20832 -0.72917,-0.33853 -1.4844,-0.39062 -1.0417,0 -1.5625,0.58594 -1.5625,1.7578 v 4.6875" />
    <path
       inkscape:connector-curvature="0"
       id="path4312"
       style="fill:#ffffff"
       d="m 967.75,712.09 v -7.8125 h 1.9531 V 712.09 H 967.75 m 0,-9.7656 v -1.9531 h 1.9531 v 1.9531 H 967.75" />
    <path
       inkscape:connector-curvature="0"
       id="path4314"
       style="fill:#ffffff"
       d="m 975.77,704.09 c 1.6927,10e-6 2.539,1.1068 2.5391,3.3203 v 4.6875 h -1.9531 v -4.6875 c 0,-1.1719 -0.52083,-1.7578 -1.5625,-1.7578 -1.04167,0 -1.5625,0.58594 -1.5625,1.7578 v 4.6875 h -1.9531 v -7.8125 h 1.9531 v 1.1719 c 0,-0.91145 0.84636,-1.3672 2.5391,-1.3672" />
    <path
       inkscape:connector-curvature="0"
       id="path4316"
       style="fill:#ffffff"
       d="m 979.88,712.09 v -7.8125 h 1.9531 V 712.09 H 979.88 m 0,-9.7656 v -1.9531 h 1.9531 v 1.9531 H 979.88" />
    <path
       inkscape:connector-curvature="0"
       id="path4318"
       style="fill:#ffffff"
       d="m 986.53,705.84 v 3.9062 c 0,0.67709 0.55468,0.92188 1.6641,0.73437 l 0.28906,1.5391 -1.48,0.27 c -1.6146,0.26042 -2.4219,-0.45573 -2.4219,-2.1484 v -4.2969 h -1.1719 l -0.39063,-1.5625 h 1.5625 v -2.9297 l 1.9531,-0.39062 v 3.3203 h 1.9531 l -0.39062,1.5625 h -1.5625" />
    <path
       inkscape:connector-curvature="0"
       id="path4320"
       style="fill:#ffffff"
       d="m 996.71,704.92 -4.8516,10.375 -1.7734,-0.78125 1.8516,-3.875 -2.7344,-5.75 1.7812,-0.80468 2.0078,4.1875 1.9609,-4.1875 1.7578,0.83593" />
    <path
       inkscape:connector-curvature="0"
       id="path4322"
       style="fill:#ffffff"
       d="m 1000.8,712.09 v -11.719 h 3.9063 c 2.6042,10e-6 3.9062,1.9531 3.9062,5.8594 0,3.9063 -1.302,5.8594 -3.9062,5.8594 H 1000.8 m 5.8594,-5.8594 c 0,-2.8646 -0.651,-4.2969 -1.9531,-4.2969 h -1.9531 v 8.5938 h 1.9531 c 1.3021,0 1.9531,-1.4323 1.9531,-4.2969" />
    <path
       inkscape:connector-curvature="0"
       id="path4324"
       style="fill:#ffffff"
       d="m 1013.7,712.29 c -2.6042,0 -3.9063,-1.3672 -3.9063,-4.1016 0,-2.7344 1.224,-4.1016 3.6719,-4.1016 2.4479,10e-6 3.6719,1.3672 3.6719,4.1016 v 0.78125 h -5.3516 c 0.3125,1.224 0.9505,1.8099 1.9141,1.7578 0.8854,0.0261 1.6276,-0.36458 2.2265,-1.1719 l 1.1719,1.1719 c -0.8333,1.0417 -1.9661,1.5625 -3.3984,1.5625 m 1.4843,-4.8828 c 0,-1.1719 -0.5156,-1.7578 -1.5468,-1.7578 -1.0261,0 -1.6433,0.58594 -1.8516,1.7578 h 3.3984" />
    <path
       inkscape:connector-curvature="0"
       id="path4326"
       style="fill:#ffffff"
       d="m 1021.6,712.29 c -1.7188,0 -2.8776,-0.59896 -3.4766,-1.7969 l 1.5625,-0.97657 c 0.2865,0.75522 0.9245,1.1589 1.9141,1.2109 1.0156,0 1.5234,-0.28645 1.5234,-0.85937 0,-0.57292 -0.664,-0.91667 -1.9922,-1.0312 -1.7447,-0.30208 -2.6171,-1.0391 -2.6171,-2.2109 0,-1.6927 1.0286,-2.539 3.0859,-2.5391 1.6667,10e-6 2.6953,0.625 3.0859,1.875 l -1.5625,0.89843 c -0.2343,-0.80728 -0.7422,-1.2109 -1.5234,-1.2109 -0.7552,0 -1.1328,0.26042 -1.1328,0.78125 0,0.52084 0.4427,0.83854 1.3281,0.95312 2.1875,0.17188 3.2813,0.96094 3.2813,2.3672 0,1.6927 -1.1589,2.5391 -3.4766,2.5391" />
    <path
       inkscape:connector-curvature="0"
       id="path4328"
       style="fill:#ffffff"
       d="m 1026.3,712.09 v -11.914 h 1.9532 v 7.25 l 3.3671,-3.375 1.1094,1.1016 -2.6406,2.6406 3.0937,3.7031 -1.5468,1.2969 -3.3828,-4.0391 V 712.09 H 1026.3" />
    <path
       inkscape:connector-curvature="0"
       id="path4330"
       style="fill:#ffffff"
       d="m 1037.4,705.84 v 3.9062 c 0,0.67709 0.5547,0.92188 1.6641,0.73437 l 0.289,1.5391 -1.4843,0.26562 c -1.6146,0.26042 -2.4219,-0.45573 -2.4219,-2.1484 v -4.2969 h -1.1719 l -0.3906,-1.5625 h 1.5625 v -2.9297 l 1.9531,-0.39062 v 3.3203 h 1.9531 l -0.3906,1.5625 H 1037.4" />
    <path
       inkscape:connector-curvature="0"
       id="path4332"
       style="fill:#ffffff"
       d="m 1044,712.29 c -2.6041,0 -3.9062,-1.3672 -3.9062,-4.1016 0,-2.7344 1.3021,-4.1016 3.9062,-4.1016 2.6042,10e-6 3.9063,1.3672 3.9063,4.1016 0,2.7344 -1.3021,4.1016 -3.9063,4.1016 m 1.9532,-4.1016 c -10e-5,-1.6927 -0.6511,-2.5391 -1.9532,-2.5391 -1.3021,0 -1.9531,0.84636 -1.9531,2.5391 0,1.69274 0.651,2.5391 1.9531,2.5391 1.3021,0 1.9531,-0.84635 1.9532,-2.5391" />
    <path
       inkscape:connector-curvature="0"
       id="path4334"
       style="fill:#ffffff"
       d="m 1052.7,710.63 c 0.9635,-0.0677 1.4453,-0.91406 1.4453,-2.5391 0,-1.6302 -0.5209,-2.4453 -1.5625,-2.4453 -1.0417,0 -1.5625,0.58594 -1.5625,1.7578 v 2.5391 c 0.1562,0.52084 0.7161,0.75 1.6797,0.6875 m -3.6328,4.5859 v -10.938 h 1.9531 v 1.1719 c 0,-0.91145 0.8463,-1.3672 2.539,-1.3672 1.6927,1e-5 2.5391,1.3021 2.5391,3.9062 -0.062,1.7604 -0.3932,2.9088 -0.9922,3.4453 -0.599,0.53125 -1.2708,0.81771 -2.0156,0.85937 -0.7448,0.0469 -1.4349,-0.0859 -2.0703,-0.39843 v 3.3203 h -1.9531" />
    <path
       inkscape:connector-curvature="0"
       id="path4336"
       style="fill:#ffffff"
       d="m 1060.8,712.09 v -11.719 h 7.0313 l -0.3907,1.5625 h -4.6875 v 3.5156 h 3.5157 v 1.5625 h -3.5157 v 3.5156 h 4.6875 l 0.3907,1.5625 H 1060.8" />
    <path
       inkscape:connector-curvature="0"
       id="path4338"
       style="fill:#ffffff"
       d="m 1073.9,704.09 c 1.6927,10e-6 2.5391,1.1068 2.5391,3.3203 v 4.6875 h -1.9531 v -4.6875 c 0,-1.1719 -0.5209,-1.7578 -1.5625,-1.7578 -1.0417,0 -1.5625,0.58594 -1.5625,1.7578 v 4.6875 h -1.9531 v -7.8125 h 1.9531 v 1.1719 c 0,-0.91145 0.8463,-1.3672 2.539,-1.3672" />
    <path
       inkscape:connector-curvature="0"
       id="path4340"
       style="fill:#ffffff"
       d="m 1084.9,704.92 -3.3516,7.1719 h -0.789 l -3.3672,-7.2031 1.7812,-0.80468 2.0079,4.1875 1.9609,-4.1875 1.7578,0.83593" />
    <path
       inkscape:connector-curvature="0"
       id="path4342"
       style="fill:#ffffff"
       d="m 1085.9,712.09 v -7.8125 h 1.9531 V 712.09 H 1085.9 m 0,-9.7656 v -1.9531 h 1.9531 v 1.9531 H 1085.9" />
    <path
       inkscape:connector-curvature="0"
       id="path4344"
       style="fill:#ffffff"
       d="m 1091.4,712.09 h -1.9531 v -7.8125 h 1.9531 v 1.1719 c 0.3125,-0.93749 0.8828,-1.4036 1.711,-1.3984 0.8281,0.005 1.4921,0.17969 1.9922,0.52343 l -0.6563,1.4609 c -0.2344,-0.20832 -0.7292,-0.33853 -1.4844,-0.39062 -1.0416,0 -1.5625,0.58594 -1.5625,1.7578 v 4.6875" />
    <path
       inkscape:connector-curvature="0"
       id="path4346"
       style="fill:#ffffff"
       d="m 1099.2,712.29 c -2.6041,0 -3.9062,-1.3672 -3.9062,-4.1016 0,-2.7344 1.3021,-4.1016 3.9062,-4.1016 2.6042,10e-6 3.9063,1.3672 3.9063,4.1016 0,2.7344 -1.3021,4.1016 -3.9063,4.1016 m 1.9532,-4.1016 c -10e-5,-1.6927 -0.6511,-2.5391 -1.9532,-2.5391 -1.3021,0 -1.9531,0.84636 -1.9531,2.5391 0,1.69274 0.651,2.5391 1.9531,2.5391 1.3021,0 1.9531,-0.84635 1.9532,-2.5391" />
    <path
       inkscape:connector-curvature="0"
       id="path4348"
       style="fill:#ffffff"
       d="m 1108.8,704.09 c 1.6927,10e-6 2.5391,1.1068 2.5391,3.3203 v 4.6875 h -1.9531 v -4.6875 c 0,-1.1719 -0.5209,-1.7578 -1.5625,-1.7578 -1.0417,0 -1.5625,0.58594 -1.5625,1.7578 v 4.6875 h -1.9531 v -7.8125 h 1.9531 v 1.1719 c 0,-0.91145 0.8463,-1.3672 2.539,-1.3672" />
    <path
       inkscape:connector-curvature="0"
       id="path4350"
       style="fill:#ffffff"
       d="m 1117.4,704.09 c 1.1979,0.026 1.9791,0.5599 2.3437,1.6016 0.1302,-1.0677 1.0417,-1.6016 2.7344,-1.6016 1.6927,10e-6 2.5391,1.1068 2.5391,3.3203 v 4.6875 h -1.9531 v -4.6875 c -10e-5,-1.1719 -0.5209,-1.7578 -1.5625,-1.7578 -1.0417,0 -1.5626,0.58594 -1.5625,1.7578 v 4.6875 h -1.9532 v -4.6875 c 0,-1.1719 -0.5208,-1.7578 -1.5625,-1.7578 -1.0416,0 -1.5625,0.58594 -1.5625,1.7578 v 4.6875 h -1.9531 v -7.8125 h 1.9531 v 1.1719 c 0,-0.91145 0.8464,-1.3672 2.5391,-1.3672" />
    <path
       inkscape:connector-curvature="0"
       id="path4352"
       style="fill:#ffffff"
       d="m 1130.1,712.29 c -2.6041,0 -3.9062,-1.3672 -3.9062,-4.1016 0,-2.7344 1.2239,-4.1016 3.6719,-4.1016 2.4479,10e-6 3.6718,1.3672 3.6718,4.1016 v 0.78125 h -5.3515 c 0.3125,1.224 0.9505,1.8099 1.914,1.7578 0.8854,0.0261 1.6276,-0.36458 2.2266,-1.1719 l 1.1719,1.1719 c -0.8334,1.0417 -1.9662,1.5625 -3.3985,1.5625 m 1.4844,-4.8828 c 0,-1.1719 -0.5156,-1.7578 -1.5469,-1.7578 -1.026,0 -1.6432,0.58594 -1.8515,1.7578 h 3.3984" />
    <path
       inkscape:connector-curvature="0"
       id="path4354"
       style="fill:#ffffff"
       d="m 1139.2,704.09 c 1.6927,10e-6 2.539,1.1068 2.5391,3.3203 v 4.6875 h -1.9532 v -4.6875 c 0,-1.1719 -0.5208,-1.7578 -1.5625,-1.7578 -1.0416,0 -1.5625,0.58594 -1.5625,1.7578 v 4.6875 h -1.9531 v -7.8125 h 1.9531 v 1.1719 c 0,-0.91145 0.8464,-1.3672 2.5391,-1.3672" />
    <path
       inkscape:connector-curvature="0"
       id="path4356"
       style="fill:#ffffff"
       d="m 1146.4,705.84 v 3.9062 c -1e-4,0.67709 0.5546,0.92188 1.664,0.73437 l 0.2891,1.5391 -1.4844,0.26562 c -1.6146,0.26042 -2.4219,-0.45573 -2.4219,-2.1484 v -4.2969 h -1.1718 l -0.3907,-1.5625 h 1.5625 v -2.9297 l 1.9532,-0.39062 v 3.3203 h 1.9531 l -0.3906,1.5625 H 1146.4" />
  </g>
  <path
     inkscape:connector-curvature="0"
     id="path1065_1_"
     style="fill:#0044aa"
     d="m 1196.9152,29.08144 h 48.844 c 3.5084,0 6.3787,2.87035 6.3787,6.37865 v 48.52527 c 0,3.50842 -2.8703,6.37865 -6.3787,6.37865 h -48.844 c -3.5086,0 -6.3791,-2.87023 -6.3791,-6.37865 V 35.46009 c 0,-3.50818 2.8704,-6.37865 6.3791,-6.37865 z" />
  <path
     inkscape:connector-curvature="0"
     id="path1067_1_"
     style="fill:#ffffff"
     d="m 1197.5527,32.58794 h 47.5689 c 1.9131,0 3.4834,1.57028 3.4834,3.5083 v 47.27408 c 0,1.91332 -1.57,3.48332 -3.4834,3.48332 h -47.5689 c -1.9134,0 -3.4832,-1.57 -3.4832,-3.48332 V 36.09624 c 0,-1.93802 1.5698,-3.5083 3.4832,-3.5083 z" />
  <path
     inkscape:connector-curvature="0"
     id="path189"
     style="fill:#0044aa;fill-opacity:1"
     d="m 1197.5527,33.26932 c -1.545,0 -2.8018,1.268 -2.8018,2.82664 v 47.27408 c 0,1.54462 1.2568,2.80206 2.8018,2.80206 h 47.5689 c 1.5449,0 2.8021,-1.25744 2.8021,-2.80206 V 36.09596 c 0,-1.55864 -1.2572,-2.82664 -2.8021,-2.82664 h -47.5689 z" />
  <path
     inkscape:connector-curvature="0"
     id="path273"
     style="fill:#ffffff"
     d="m 1235.3871,72.0202 -0.6762,0.2147 c -0.099,0.0305 -0.2053,-0.006 -0.2642,-0.0922 0,0 -1.3336,-1.95181 -3.0555,-4.47239 -2.0592,4.02969 -6.2487,6.78987 -11.0857,6.78987 -6.8732,0 -12.4457,-5.57216 -12.4457,-12.44531 0,-5.05574 3.0161,-9.40421 7.3453,-11.35271 v -3.21033 c -0.7879,0.2758 -1.5491,0.60786 -2.2726,1.00199 -10e-4,-8e-4 -0,-0.002 -0,-0.003 l -5.8623,-3.84481 c -0.1577,-0.1032 -0.366,-0.0818 -0.4992,0.0516 l -3.0713,3.07115 c -0.1291,0.12953 -0.1533,0.33073 -0.059,0.48756 l 3.596,5.92241 c -0.6379,1.07243 -1.1486,2.22866 -1.5133,3.44829 l -6.6026,1.37319 c -0.1837,0.038 -0.3161,0.20067 -0.3161,0.3889 v 4.34328 c 0,0.18369 0.1251,0.34277 0.3029,0.38609 l 6.4069,1.56597 c 0.3423,1.41201 0.8711,2.75149 1.571,3.9822 l -3.7085,5.65583 c -0.1035,0.15776 -0.082,0.36604 0.052,0.4992 l 3.0706,3.0713 c 0.1296,0.12915 0.3314,0.15374 0.4878,0.0586 l 5.8133,-3.52902 c 1.1406,0.65854 2.3725,1.17723 3.6733,1.52856 l 1.3564,6.51971 c 0.038,0.18421 0.201,0.31683 0.389,0.31683 h 4.3433 c 0.1824,0 0.3423,-0.12513 0.3856,-0.30346 l 1.597,-6.53486 c 1.3417,-0.36175 2.6101,-0.90077 3.7801,-1.58952 l 5.7271,3.75599 c 0.1581,0.10294 0.3655,0.0818 0.4995,-0.0513 l 3.071,-3.07131 c 0.13,-0.12967 0.1537,-0.33046 0.059,-0.48688 l -2.0916,-3.44642 z" />
  <path
     inkscape:connector-curvature="0"
     id="path2891"
     d="m 1216.962,44.09566 c 0,0 0.1962,25.41858 0.1962,25.41858 l 6.7022,0.0502 -0.3209,-25.52976 13.1925,-0.0434 0,-5.61081 -33.1995,-0.11258 -0.087,5.71122 13.5132,0.11632 z"
     style="fill:#ffffff" />
  <path
     inkscape:connector-curvature="0"
     id="path2895"
     d="m 1205.2112,72.0202 0.6762,0.2147 c 0.099,0.0305 0.2054,-0.006 0.2642,-0.0922 0,0 1.3336,-1.95181 3.0555,-4.47239 2.0593,4.02969 6.2488,6.78987 11.0858,6.78987 6.8731,0 12.4457,-5.57216 12.4457,-12.44531 0,-5.05574 -3.0161,-9.40421 -7.3454,-11.35271 v -3.21033 c 0.788,0.2758 1.5492,0.60786 2.2727,1.00199 10e-4,-8e-4 0,-0.002 0,-0.003 l 5.8622,-3.84485 c 0.1578,-0.1032 0.366,-0.0818 0.4992,0.0516 l 3.0713,3.07114 c 0.1292,0.12954 0.1534,0.33073 0.059,0.48756 l -3.596,5.92241 c 0.638,1.07244 1.1486,2.22867 1.5133,3.44829 l 6.6026,1.3732 c 0.1837,0.038 0.3162,0.20066 0.3162,0.38889 v 4.34329 c 0,0.18368 -0.1252,0.34277 -0.303,0.38608 l -6.4069,1.56598 c -0.3422,1.41196 -0.8711,2.75149 -1.5709,3.98223 l 3.7084,5.65584 c 0.1035,0.15775 0.082,0.36603 -0.052,0.4992 l -3.0706,3.0713 c -0.1296,0.12914 -0.3314,0.15374 -0.4878,0.0585 l -5.8133,-3.52902 c -1.1406,0.65855 -2.3725,1.17723 -3.6734,1.52856 l -1.3563,6.51971 c -0.038,0.18422 -0.201,0.31683 -0.3891,0.31683 h -4.3432 c -0.1824,0 -0.3423,-0.12512 -0.3856,-0.30346 l -1.597,-6.53485 c -1.3417,-0.36176 -2.6101,-0.90078 -3.7801,-1.58953 l -5.7272,3.75603 c -0.158,0.10294 -0.3655,0.0818 -0.4994,-0.0513 l -3.071,-3.0713 c -0.13,-0.12967 -0.1538,-0.33047 -0.059,-0.48689 l 2.0916,-3.44642 z"
     style="fill:#ffffff" />
  <path
     inkscape:connector-curvature="0"
     id="path2042-9"
     style="fill:url(#linearGradient3240);fill-rule:evenodd"
     d="m 1245.6994,29.09339 c 3.5181,0 6.3827,2.86003 6.3827,6.37268 l -0.073,6.9389 c -1.3977,0.40946 -10.0625,0.69628 -12.9928,1.18316 -3.4323,1.39814 -5.7491,2.70053 -7.7554,3.10115 -2.8645,0.572 -6.2384,1.76277 -8.0929,3.61441 -2.6478,2.64375 -4.7564,2.48189 -7.2042,4.92584 -2.4271,2.42328 -5.4387,3.11633 -9.3795,3.9033 -4.7258,0.94369 -10.924,1.73309 -15.3043,0.85842 -0.3177,-0.0634 -0.5326,-0.10442 -0.8304,-0.16086 V 35.46575 c 0,-3.5126 2.88,-6.37268 6.3826,-6.37268 h 48.868 z" />
</svg>
